<?xml version="1.0" standalone="no"?>
<!DOCTYPE svg PUBLIC "-//W3C//DTD SVG 20010904//EN"
 "http://www.w3.org/TR/2001/REC-SVG-20010904/DTD/svg10.dtd">
<svg version="1.0" xmlns="http://www.w3.org/2000/svg"
 width="96.000000pt" height="96.000000pt" viewBox="0 0 96.000000 96.000000"
 preserveAspectRatio="xMidYMid meet">
<metadata>
Created by potrace 1.16, written by Peter Selinger 2001-2019
</metadata>
<g transform="translate(0.000000,96.000000) scale(0.100000,-0.100000)"
fill="#000000" stroke="none">
<path d="M419 811 c-23 -24 -29 -38 -29 -74 l0 -45 -93 -4 c-82 -3 -99 -6
-135 -30 -57 -38 -88 -97 -112 -212 -24 -120 -25 -123 -2 -103 17 16 20 11 47
-103 l29 -120 73 0 73 0 0 48 0 47 75 0 75 0 0 -47 0 -48 73 0 73 0 27 113
c15 61 30 136 33 165 l7 52 89 0 c143 0 178 31 178 161 0 67 -2 73 -34 105
-30 30 -40 34 -82 33 -27 0 -58 -4 -69 -8 -13 -5 -28 -2 -45 11 -14 10 -43 21
-65 25 -25 4 -47 16 -63 35 -33 39 -83 39 -123 -1z m79 -43 c7 -7 12 -20 12
-29 0 -13 12 -18 57 -21 50 -4 61 -9 87 -40 l31 -35 25 18 c72 53 130 26 130
-61 0 -81 -16 -90 -154 -90 l-114 0 -6 -67 c-4 -38 -16 -112 -28 -165 -17 -81
-24 -98 -40 -98 -16 0 -18 9 -18 75 l0 75 -41 -27 c-32 -21 -54 -27 -94 -27
-40 0 -62 6 -94 27 l-41 27 0 -75 c0 -66 -2 -75 -18 -75 -16 0 -23 18 -42 103
-32 139 -32 220 -1 271 36 57 85 76 204 76 l97 0 0 63 c0 56 11 87 30 87 3 0
11 -5 18 -12z"/>
</g>
</svg>
